<svg width="96" height="79" viewBox="0 0 96 79" fill="none" xmlns="http://www.w3.org/2000/svg">
<path d="M61.5076 77.6225C61.5753 78.1707 62.0745 78.5601 62.6226 78.4925L71.5548 77.3897C72.1029 77.3221 72.4924 76.8229 72.4247 76.2747C72.3571 75.7266 71.8579 75.3371 71.3098 75.4048L63.37 76.385L62.3898 68.4453C62.3221 67.8972 61.8229 67.5077 61.2748 67.5754C60.7267 67.643 60.3372 68.1422 60.4049 68.6904L61.5076 77.6225ZM45.1169 10.4932C61.8981 8.51892 74.5537 14.0974 78.8797 25.2978C83.2448 36.5992 79.4025 54.2106 61.7117 76.8849L63.2885 78.1151C81.0976 55.2894 85.5053 36.9008 80.7454 24.5772C75.9465 12.1526 62.102 6.48115 44.8832 8.50687L45.1169 10.4932Z" fill="white"/>
<path d="M0.693359 42.2637L4.90234 42C4.99349 42.6836 5.17904 43.2044 5.45898 43.5625C5.91471 44.1419 6.56576 44.4316 7.41211 44.4316C8.04362 44.4316 8.52865 44.2852 8.86719 43.9922C9.21224 43.6927 9.38477 43.3477 9.38477 42.957C9.38477 42.5859 9.22201 42.2539 8.89648 41.9609C8.57096 41.668 7.81576 41.3913 6.63086 41.1309C4.69076 40.6947 3.30729 40.1152 2.48047 39.3926C1.64714 38.6699 1.23047 37.7487 1.23047 36.6289C1.23047 35.8932 1.44206 35.1999 1.86523 34.5488C2.29492 33.8913 2.9362 33.377 3.78906 33.0059C4.64844 32.6283 5.82357 32.4395 7.31445 32.4395C9.14388 32.4395 10.5371 32.7812 11.4941 33.4648C12.4577 34.1419 13.0306 35.2227 13.2129 36.707L9.04297 36.9512C8.93229 36.3066 8.69792 35.8379 8.33984 35.5449C7.98828 35.252 7.5 35.1055 6.875 35.1055C6.36068 35.1055 5.97331 35.2161 5.71289 35.4375C5.45247 35.6523 5.32227 35.916 5.32227 36.2285C5.32227 36.4564 5.42969 36.6615 5.64453 36.8438C5.85286 37.0326 6.34766 37.2083 7.12891 37.3711C9.0625 37.7878 10.446 38.2109 11.2793 38.6406C12.1191 39.0638 12.7279 39.5911 13.1055 40.2227C13.4896 40.8542 13.6816 41.5605 13.6816 42.3418C13.6816 43.2598 13.4277 44.1061 12.9199 44.8809C12.4121 45.6556 11.7025 46.2448 10.791 46.6484C9.87956 47.0456 8.73047 47.2441 7.34375 47.2441C4.90885 47.2441 3.22266 46.7754 2.28516 45.8379C1.34766 44.9004 0.817057 43.709 0.693359 42.2637ZM23.3887 42.9473L27.168 43.377C26.9596 44.1647 26.6178 44.8483 26.1426 45.4277C25.6673 46.0007 25.0586 46.4466 24.3164 46.7656C23.5807 47.0846 22.6432 47.2441 21.5039 47.2441C20.4036 47.2441 19.4857 47.1432 18.75 46.9414C18.0208 46.7331 17.3926 46.401 16.8652 45.9453C16.3379 45.4831 15.9245 44.9427 15.625 44.3242C15.3255 43.7057 15.1758 42.8854 15.1758 41.8633C15.1758 40.7956 15.3581 39.9069 15.7227 39.1973C15.9896 38.6764 16.3542 38.2109 16.8164 37.8008C17.2786 37.3841 17.7539 37.0749 18.2422 36.873C19.0169 36.554 20.0098 36.3945 21.2207 36.3945C22.9134 36.3945 24.2025 36.6973 25.0879 37.3027C25.9798 37.9082 26.6048 38.7936 26.9629 39.959L23.2227 40.457C23.1055 40.0143 22.8906 39.6823 22.5781 39.4609C22.2721 39.2331 21.8587 39.1191 21.3379 39.1191C20.6803 39.1191 20.1465 39.3568 19.7363 39.832C19.3327 40.3008 19.1309 41.0137 19.1309 41.9707C19.1309 42.8236 19.3327 43.4714 19.7363 43.9141C20.14 44.3568 20.6543 44.5781 21.2793 44.5781C21.8001 44.5781 22.2363 44.4447 22.5879 44.1777C22.946 43.9108 23.2129 43.5007 23.3887 42.9473ZM29.0332 36.6289H32.7539V38.3281C33.112 37.5924 33.4798 37.0879 33.8574 36.8145C34.2415 36.5345 34.7135 36.3945 35.2734 36.3945C35.8594 36.3945 36.5007 36.5768 37.1973 36.9414L35.9668 39.7734C35.498 39.5781 35.127 39.4805 34.8535 39.4805C34.3327 39.4805 33.929 39.6953 33.6426 40.125C33.2324 40.7305 33.0273 41.8633 33.0273 43.5234V47H29.0332V36.6289ZM37.3926 41.8438C37.3926 40.2617 37.9264 38.9596 38.9941 37.9375C40.0618 36.9089 41.5039 36.3945 43.3203 36.3945C45.3971 36.3945 46.9661 36.9967 48.0273 38.2012C48.8802 39.1712 49.3066 40.3659 49.3066 41.7852C49.3066 43.3802 48.776 44.6888 47.7148 45.7109C46.6602 46.7266 45.1986 47.2344 43.3301 47.2344C41.6634 47.2344 40.3158 46.8112 39.2871 45.9648C38.0241 44.9167 37.3926 43.543 37.3926 41.8438ZM41.377 41.834C41.377 42.7585 41.5625 43.4421 41.9336 43.8848C42.3112 44.3275 42.7832 44.5488 43.3496 44.5488C43.9225 44.5488 44.3913 44.3307 44.7559 43.8945C45.127 43.4583 45.3125 42.7585 45.3125 41.7949C45.3125 40.8965 45.127 40.2292 44.7559 39.793C44.3848 39.3503 43.9258 39.1289 43.3789 39.1289C42.7995 39.1289 42.321 39.3535 41.9434 39.8027C41.5658 40.2454 41.377 40.9225 41.377 41.834ZM51.3574 32.6836H55.3418V47H51.3574V32.6836ZM58.0176 32.6836H62.002V47H58.0176V32.6836ZM64.5508 32.6836H68.7988V35.9453L67.9785 42.498H65.3516L64.5508 35.9453V32.6836ZM64.6973 43.4941H68.6621V47H64.6973V43.4941Z" fill="white"/>
</svg>
