<svg width="127" height="84" viewBox="0 0 127 84" fill="none" xmlns="http://www.w3.org/2000/svg">
<path d="M10.9961 16.1504L14.873 17.3223C14.6126 18.4095 14.2025 19.3177 13.6426 20.0469C13.0827 20.776 12.3861 21.3262 11.5527 21.6973C10.7259 22.0684 9.67122 22.2539 8.38867 22.2539C6.83268 22.2539 5.5599 22.0293 4.57031 21.5801C3.58724 21.1243 2.73763 20.3268 2.02148 19.1875C1.30534 18.0482 0.947266 16.5898 0.947266 14.8125C0.947266 12.4427 1.57552 10.623 2.83203 9.35352C4.09505 8.07747 5.87891 7.43945 8.18359 7.43945C9.98698 7.43945 11.403 7.80404 12.4316 8.5332C13.4668 9.26237 14.235 10.3822 14.7363 11.8926L10.8301 12.7617C10.6934 12.3255 10.5501 12.0065 10.4004 11.8047C10.153 11.4661 9.85026 11.2057 9.49219 11.0234C9.13411 10.8411 8.73372 10.75 8.29102 10.75C7.28841 10.75 6.52018 11.1536 5.98633 11.9609C5.58268 12.5599 5.38086 13.5007 5.38086 14.7832C5.38086 16.3717 5.62174 17.4622 6.10352 18.0547C6.58529 18.6406 7.26237 18.9336 8.13477 18.9336C8.98112 18.9336 9.61914 18.696 10.0488 18.2207C10.485 17.7454 10.8008 17.0553 10.9961 16.1504ZM16.9043 7.68359H20.8887V22H16.9043V7.68359ZM23.5742 7.68359H27.5488V10.3887H23.5742V7.68359ZM23.5742 11.6289H27.5488V22H23.5742V11.6289ZM37.8223 17.9473L41.6016 18.377C41.3932 19.1647 41.0514 19.8483 40.5762 20.4277C40.1009 21.0007 39.4922 21.4466 38.75 21.7656C38.0143 22.0846 37.0768 22.2441 35.9375 22.2441C34.8372 22.2441 33.9193 22.1432 33.1836 21.9414C32.4544 21.7331 31.8262 21.401 31.2988 20.9453C30.7715 20.4831 30.3581 19.9427 30.0586 19.3242C29.7591 18.7057 29.6094 17.8854 29.6094 16.8633C29.6094 15.7956 29.7917 14.9069 30.1562 14.1973C30.4232 13.6764 30.7878 13.2109 31.25 12.8008C31.7122 12.3841 32.1875 12.0749 32.6758 11.873C33.4505 11.554 34.4434 11.3945 35.6543 11.3945C37.347 11.3945 38.6361 11.6973 39.5215 12.3027C40.4134 12.9082 41.0384 13.7936 41.3965 14.959L37.6562 15.457C37.5391 15.0143 37.3242 14.6823 37.0117 14.4609C36.7057 14.2331 36.2923 14.1191 35.7715 14.1191C35.1139 14.1191 34.5801 14.3568 34.1699 14.832C33.7663 15.3008 33.5645 16.0137 33.5645 16.9707C33.5645 17.8236 33.7663 18.4714 34.1699 18.9141C34.5736 19.3568 35.0879 19.5781 35.7129 19.5781C36.2337 19.5781 36.6699 19.4447 37.0215 19.1777C37.3796 18.9108 37.6465 18.5007 37.8223 17.9473ZM43.4277 7.68359H47.4902V15.0664L50.459 11.6289H55.3516L51.6309 15.2617L55.5664 22H51.084L48.9844 17.8398L47.4902 19.3047V22H43.4277V7.68359ZM63.4766 11.6289H67.1875V13.1426C67.7214 12.5111 68.2585 12.0618 68.7988 11.7949C69.3457 11.528 70.0033 11.3945 70.7715 11.3945C71.5983 11.3945 72.2526 11.541 72.7344 11.834C73.2161 12.127 73.61 12.5632 73.916 13.1426C74.541 12.4655 75.1107 12.0065 75.625 11.7656C76.1393 11.5182 76.7741 11.3945 77.5293 11.3945C78.6426 11.3945 79.5117 11.7266 80.1367 12.3906C80.7617 13.0482 81.0742 14.0801 81.0742 15.4863V22H77.0898V16.0918C77.0898 15.623 76.9987 15.2747 76.8164 15.0469C76.5495 14.6888 76.2174 14.5098 75.8203 14.5098C75.3516 14.5098 74.974 14.679 74.6875 15.0176C74.401 15.3561 74.2578 15.8997 74.2578 16.6484V22H70.2734V16.2871C70.2734 15.8314 70.2474 15.5221 70.1953 15.3594C70.1107 15.099 69.9642 14.8906 69.7559 14.7344C69.5475 14.5716 69.3034 14.4902 69.0234 14.4902C68.5677 14.4902 68.1934 14.6628 67.9004 15.0078C67.6074 15.3529 67.4609 15.9193 67.4609 16.707V22H63.4766V11.6289ZM94.9609 17.8008H86.9922C87.0638 18.4388 87.2363 18.9141 87.5098 19.2266C87.8939 19.6758 88.3952 19.9004 89.0137 19.9004C89.4043 19.9004 89.7754 19.8027 90.127 19.6074C90.3418 19.4837 90.5729 19.2656 90.8203 18.9531L94.7363 19.3145C94.1374 20.3561 93.4147 21.1048 92.5684 21.5605C91.722 22.0098 90.5078 22.2344 88.9258 22.2344C87.5521 22.2344 86.4714 22.0423 85.6836 21.6582C84.8958 21.2676 84.2415 20.6523 83.7207 19.8125C83.2064 18.9661 82.9492 17.9733 82.9492 16.834C82.9492 15.2129 83.4668 13.901 84.502 12.8984C85.5436 11.8958 86.9792 11.3945 88.8086 11.3945C90.293 11.3945 91.4648 11.6191 92.3242 12.0684C93.1836 12.5176 93.8379 13.1686 94.2871 14.0215C94.7363 14.8743 94.9609 15.9844 94.9609 17.3516V17.8008ZM90.918 15.8965C90.8398 15.1283 90.6315 14.5781 90.293 14.2461C89.9609 13.9141 89.5215 13.748 88.9746 13.748C88.3431 13.748 87.8385 13.9987 87.4609 14.5C87.2201 14.8125 87.0671 15.278 87.002 15.8965H90.918ZM96.7969 7.68359H101.045V10.9453L100.225 17.498H97.5977L96.7969 10.9453V7.68359ZM96.9434 18.4941H100.908V22H96.9434V18.4941Z" fill="white"/>
<path d="M126.589 66.7071C126.979 66.3166 126.979 65.6834 126.589 65.2929L120.225 58.9289C119.834 58.5384 119.201 58.5384 118.81 58.9289C118.42 59.3195 118.42 59.9526 118.81 60.3431L124.467 66L118.81 71.6569C118.42 72.0474 118.42 72.6805 118.81 73.0711C119.201 73.4616 119.834 73.4616 120.225 73.0711L126.589 66.7071ZM56.8814 28C56.8814 36.1893 57.8552 42.7872 60.2107 48.0565C62.5813 53.3599 66.3247 57.2574 71.7319 60.0744C77.1071 62.8746 84.1052 64.5967 92.9929 65.6262C101.888 66.6564 112.746 67 125.881 67L125.881 65C112.766 65 102 64.6561 93.223 63.6395C84.4388 62.622 77.7182 60.9379 72.6559 58.3006C67.6257 55.6801 64.2128 52.1089 62.0365 47.2403C59.8451 42.3378 58.8814 36.0607 58.8814 28L56.8814 28Z" fill="white"/>
</svg>
